<?xml version="1.0" encoding="UTF-8" standalone="no"?>
<svg
   version="1.1"
   preserveAspectRatio="none"
   x="0px"
   y="0px"
   width="70px"
   height="70px"
   viewBox="0 0 70 70"
   id="svg1"
   sodipodi:docname="b1-v1-icon.svg"
   inkscape:version="1.4 (86a8ad7, 2024-10-11)"
   xmlns:inkscape="http://www.inkscape.org/namespaces/inkscape"
   xmlns:sodipodi="http://sodipodi.sourceforge.net/DTD/sodipodi-0.dtd"
   xmlns:xlink="http://www.w3.org/1999/xlink"
   xmlns="http://www.w3.org/2000/svg"
   xmlns:svg="http://www.w3.org/2000/svg">
  <sodipodi:namedview
     id="namedview1"
     pagecolor="#b7b7b7"
     bordercolor="#000000"
     borderopacity="0.25"
     inkscape:showpageshadow="2"
     inkscape:pageopacity="0.0"
     inkscape:pagecheckerboard="0"
     inkscape:deskcolor="#d1d1d1"
     inkscape:zoom="5.6785714"
     inkscape:cx="47.899371"
     inkscape:cy="42"
     inkscape:window-width="1920"
     inkscape:window-height="991"
     inkscape:window-x="-9"
     inkscape:window-y="-9"
     inkscape:window-maximized="1"
     inkscape:current-layer="svg1" />
  <defs
     id="defs1">
    <g
       id="Layer0_0_FILL">
      <path
         fill="#FFFFFF"
         stroke="none"
         d=" M 60.6 44.7 Q 59.344921875 43.85 55.2 45.6 51.0515625 47.35 45.3 46.05 39.55 44.8 39.35 42.75 39.25 41.75 39.3 40.7 39.1 36.4 50.1 34.3 61.05 32.2 61.05 26.05 61.05 19.9 53.55 15.55 46.05 11.25 35.45 11.25 35.3 11.25 35.2 11.25 35.1 11.25 34.95 11.25 24.35 11.25 16.85 15.55 9.35 19.9 9.35 26.05 9.35 27.8 11.45 30.6 8.8234375 33.45703125 7.85 35.75 6.8693359375 38.0865234375 6.6 40.1 6.333984375 42.1638671875 6.6 44.55 6.870703125 46.9435546875 8.45 51.75 10.080078125 56.5537109375 16.25 55.4 22.41171875 54.2982421875 24.3 53.5 26.2044921875 52.7423828125 25.95 53.4 25.693359375 54.1107421875 25.55 55.05 25.401171875 55.99375 25.65 56.35 25.94921875 56.704296875 26.9 55.9 27.8998046875 55.148046875 28.75 55.45 29.65 55.8 31.65 56.85 33.6 57.85 35.25 57.85 36.8 57.85 38.75 56.85 40.75 55.8 41.65 55.45 42.5052734375 55.147265625 43.35 56.05 44.232421875 57.0068359375 44.75 56.5 45.315625 56.051953125 44.95 54.6 44.60078125 53.1345703125 45.05 53.25 45.5388671875 53.36796875 46.35 53.75 47.21171875 54.18671875 51.35 55.45 55.4953125 56.752734375 58.7 51.15 61.905859375 45.5990234375 60.6 44.7 M 15.15 45.8 Q 9.5 43.05 11.65 37.7 13.15 33.85 19.2 34.3 31.3 36.4 31.1 40.7 31.15 41.75 31.05 42.75 30.85 44.8 25.25 46.55 20.1 48.15 15.15 45.8 Z"
         id="path1" />
    </g>
  </defs>
  <g
     transform="translate(0,-2)"
     id="g1"
     style="fill:#333333">
    <use
       xlink:href="#Layer0_0_FILL"
       id="use1"
       style="fill:#333333" />
  </g>
</svg>
