
<svg xmlns="http://www.w3.org/2000/svg" version="1.1" xmlns:xlink="http://www.w3.org/1999/xlink" preserveAspectRatio="none" x="0px" y="0px" width="70px" height="70px" viewBox="0 0 70 70">
<defs/>

<g id="svg1">
<g>
<g>
<g>
<path fill="#FFFFFF" fill-opacity="0" stroke="none" d="
M 70 0
L 0 0 0 70 70 70 70 0 Z"/>
</g>
</g>
</g>
</g>

<g id="Layer_2">
<g>
<g>
<g>
<path fill="#FFFFFF" stroke="none" d="
M 39.8 53.1
Q 39.8 51.5 38.65 50.45 37.5 49.35 34.7 49.35 31.9 49.35 30.75 50.45 29.65 51.5 29.65 53.1 29.65 54.75 30.8 55.8 31.95 56.8 34.7 56.8 37.5 56.8 38.65 55.8 39.8 54.75 39.8 53.1
M 41.1 21.2
Q 41.75 21.75 42.2 22.35 43.05 23.65 43.15 25.2 43.15 25.4 43.15 25.6 43.15 27.4 41.45 29.15 39.7 30.95 31.1 34.2
L 31.1 38.25
Q 31.1 40.9 32.1 42 33.1 43.1 34.7 43.1 36.2 43.1 37.15 42.15 38.1 41.2 38.3 39.2 45.4 36.05 47.9 33.05 50.4 30.15 50.4 25.9 50.4 25.6 50.4 25.2 50.3 23.75 50 22.35 49.45 20.2 48.25 18.4 47.45 17.2 46.3 16.05 42.15 12.1 35.3 12.1 32.05 12.1 29 12.95 26.1 13.75 21.05 16.05 20.75 16.25 20.4 16.4
L 20.4 22.2
Q 20.4 24.8 21.4 25.85 22.4 26.95 24 26.95 25.65 26.95 26.65 25.85 27.6 24.75 27.6 22.2
L 27.6 21.15
Q 31.3 19.3 35.25 19.3 39.1 19.3 41.1 21.2 Z"/>
</g>
</g>
</g>
</g>
</svg>
