
<svg xmlns="http://www.w3.org/2000/svg" version="1.1" xmlns:xlink="http://www.w3.org/1999/xlink" preserveAspectRatio="none" x="0px" y="0px" width="1024px" height="380px" viewBox="0 0 1024 380">
<defs>
<linearGradient id="Gradient_1" gradientUnits="userSpaceOnUse" x1="512" y1="379.925" x2="512" y2="-0.025000000000034106" spreadMethod="pad">
<stop  offset="0%" stop-color="#000000" stop-opacity="0.8"/>

<stop  offset="100%" stop-color="#000000" stop-opacity="0"/>
</linearGradient>
</defs>

<g id="Layer_1">
<g>
<g>
<g>
<path fill="url(#Gradient_1)" stroke="none" d="
M 1024 380
L 1024 0 0 0 0 380 1024 380 Z"/>
</g>
</g>
</g>
</g>

<g id="Layer_2">
<g>
<g>
<g>
<path fill="#FFFFFF" stroke="none" d="
M 980.35 81
Q 987.55 72 986.35 60.5 984.65 44.4 970.15 37.05 955.8 29.8 942.1 38.25 928.2 46.8 927.6 63.1 927.75 74.1 935 82.35 942.8 91.3 954.6 92.25 970.45 93.45 980.35 81
M 981.15 167.7
Q 980.8 160 980.9 152.25 981.05 136 968.15 126.2 958.95 119.25 947.45 120.8 931.4 123 924.15 137.5 923.5212890625 138.757421875 923.1 140.05 917.904296875 132.9556640625 911.25 126.75 901.1 117.25 888.8 110.9 881.25 107 872.85 106.35 857.2 105.15 845.8 115.8 845.45 116.2 845.15 116.65 844.15 117.9 843.15 119.2 842.15 120.5 841.15 121.75 840.25 122.95 839.55 124.3 838.85 125.6 838.3 127.05 837.7 128.45 837.25 129.9 833.75 130.3 830.5 131.55 820.55 135.3 815.05 144.4 813.5 146.95 812.85 149.9 810 162.75 809.25 176.05 808.25 194.2 807.95 212.4 807.75 226.65 809.3 240.8 810.05 247.4 812.35 253.6 817.85 268.35 832.65 273.15 833.2 273.2 833.8 273.3 834.35 273.35 834.9 273.45 835.45 273.5 836.05 273.6 836.6 273.65 837.15 273.75 837.7 273.8 838.3 273.9 838.85 273.95 839.4 274.05 839.95 274.15 840.55 274.2 844.2 274.2 847.75 273.25 855.75 271.15 861.7 265.4 867.25 260.1 869.5 252.7 871.8 245.05 873.15 237.2 874.75 227.75 876.55 218.3 878.75 206.8 881.35 195.35 881.2 199.1 880.9 202.85 880.6 206.5 880.3 210.2 880.05 213.75 879.75 217.3 879.422265625 221.0927734375 878.9 224.85 878.8986328125 225.05078125 878.85 225.2
L 878.85 225.4
Q 878.792578125 225.8263671875 878.75 226.25 878.7345703125 226.3375 878.7 226.4 878.709375 226.5373046875 878.7 226.65 878.65 226.8 878.65 226.9 878.65 226.9521484375 878.65 227 878.63671875 227.0958984375 878.6 227.2 878.6142578125 227.2767578125 878.6 227.35
L 878.6 227.35
Q 878.6 227.41171875 878.6 227.45 878.5837890625 227.4736328125 878.55 227.5 878.561328125 227.6017578125 878.55 227.7 878.536328125 227.7759765625 878.5 227.85 878.5130859375 227.95546875 878.5 228.05
L 878.5 228.1
Q 878.4927734375 228.1443359375 878.45 228.2 878.4876953125 228.1748046875 878.5 228.15 878.46953125 228.299609375 878.45 228.45
L 878.45 228.5
Q 878.43359375 228.569921875 878.4 228.6 878.4173828125 228.665234375 878.4 228.7
L 878.4 228.75
Q 878.3755859375 228.9380859375 878.35 229.1 878.33671875 229.2248046875 878.3 229.3
L 878.3 229.35
Q 878.314453125 229.4505859375 878.3 229.55 878.2802734375 229.6537109375 878.25 229.75
L 878.25 229.8 878.25 229.85
Q 878.23515625 229.9921875 878.2 230.1 878.20546875 230.167578125 878.2 230.2
L 878.2 230.15
Q 878.2056640625 230.2111328125 878.2 230.25 878.1837890625 230.401953125 878.15 230.55 878.1587890625 230.5375 878.15 230.5 878.183203125 230.4501953125 878.2 230.4
L 878.2 230.45
Q 878.1697265625 230.587890625 878.15 230.7
L 878.15 230.8
Q 878.1216796875 230.856640625 878.1 230.9 878.1 230.9625 878.1 231 878.1 231.0625 878.1 231.1 878.0845703125 231.175390625 878.05 231.25 878.04609375 231.4056640625 878 231.55
L 878 231.65 878 231.6
Q 878.0021484375 231.6736328125 878 231.75
L 878 231.8
Q 877.9625 231.99375 877.9 232.15
L 877.7 233.8 877.7 233.85
Q 877.664453125 234.3109375 877.6 234.75 877.5884765625 234.8259765625 877.55 234.9 877.5630859375 235.0015625 877.55 235.1 877.541796875 235.198828125 877.5 235.3
L 877.5 235.35
Q 877.51640625 235.4623046875 877.5 235.55
L 877.5 235.6
Q 877.46328125 235.81796875 877.4 236 877.4134765625 236.1654296875 877.4 236.3
L 877.4 236.3
Q 877.3744140625 236.4373046875 877.35 236.55
L 877.35 236.6
Q 877.33671875 236.71171875 877.3 236.8 877.3130859375 236.9361328125 877.3 237.05 877.2724609375 237.3029296875 877.25 237.55 877.17421875 238.125 877.1 238.7 875.95 247.3 874.9 255.95 873.8 264.6 872.9 273.25 872 281.95 871 290.6 870.2 297.85 871.4 304.95 872.95 313.8 879.25 320.25 879.65 320.6 880 320.95 883.35 324.05 887.5 326 891.65 328 896.15 328.6 900.7 329.25 905.25 328.45 909.75 327.65 913.8 325.55 919.3 322.75 923.2 317.9 926.1986328125 314.209375 927.85 309.85 931.5880859375 315.26484375 938.05 319 952 327.05 966.2 319.55 976.6 314.1 980.2 302.9 982.8 294.85 982.5 286.3 982.05 271.45 982.05 256.6 982 241.7 982 226.85 982 211.9 981.9 196.95 981.8 182.35 981.15 167.7
M 878.4 228.95
Q 878.3783203125 229.015234375 878.35 229.05 878.3705078125 229.035546875 878.35 229
L 878.4 228.95
M 877.95 231.95
Q 877.990234375 231.9525390625 878 231.9
L 878 231.95
Q 877.9830078125 232.01796875 877.95 232.05 877.9580078125 232.117578125 877.95 232.15 877.9603515625 232.0603515625 877.95 231.95
M 878.15 230.5
Q 878.166015625 230.5443359375 878.15 230.6
L 878.15 230.7 878.15 230.5
M 878.45 228.35
Q 878.4623046875 228.2716796875 878.45 228.2 878.4626953125 228.2248046875 878.45 228.25 878.45 228.299609375 878.45 228.35
M 878.55 227.45
L 878.55 227.5
Q 878.5880859375 227.431640625 878.6 227.35 878.590625 227.4099609375 878.55 227.45
M 782.8 39.45
Q 771.95 35.75 760.45 34.5 741.3 32.4 722.15 30.4 706.25 28.75 690.35 26.95 688.784765625 26.7712890625 687.2 26.6 683.0880859375 23.6546875 677.75 22.25 662.3 18.2 650.4 28.95 649.6755859375 29.6044921875 649 30.25 644.2306640625 32.887109375 640.35 37.25 631.6 47.15 633.2 60.25 634.34296875 69.88984375 640.6 76.55 640.5970703125 77.408984375 640.6 78.25 640.6 93.2 640.6 108.2 640.6 123.2 640.6 138.2 640.6 153.25 640.65 168.35 640.7 183.35 640.25 198.4 639.8 213.15 639.1 227.9 639.05 230.15 639.45 232.3 642.3 248.15 657.15 254.65 672.1 261.15 685.65 251.9 693.4052734375 246.589453125 696.15 237.95 696.5607421875 238.6220703125 696.95 239.3 704.4 252.3 713.95 263.85 723.5 275.35 734.6 285.3 745.65 295.2 758.35 302.95 771.05 310.65 784.8 316.3 790.2 318.8 795.8 320.85 804.85 324.2 814.2 322 822.1 320.15 827.95 314.45 833.75 308.8 835.9 301 838.15 292.85 835.65 284.75 833.2 276.9 827.05 271.4 820.85 265.85 812.75 264.25 811.25 263.75 809.8 263.05 802.9 259.95 796.2 256.6 789.05 253 782.6 248.4 776.6 244.1 771.3 238.85 766 233.55 761 227.95 755.65 221.95 751.15 215.35 753.5 217.2 756.2 218.5 759.6 220.15 763.3 220.9 767 221.65 770.75 221.5 774.5 221.3 778.1 220.2 781.5 219.1 784.6 217.25 787.65 215.4 790.2 212.85 792.65 209.7 795.2 206.7 805.2 195 808.25 179.9 809.75 172.6 809 165.2 807.5 150.5 798.9 138.25 797.96875 136.917578125 796.95 135.65 799.9505859375 130.3908203125 802.45 124.85 808.75 110.95 811.2 96 814.3 77.45 806.35 60.5 799.1 45 782.8 39.45
M 756.4 222.6
L 756.45 222.6
Q 756.515625 222.6875 756.55 222.75 756.5048828125 222.6767578125 756.4 222.6
M 757.75 224.35
L 757.75 224.35
Q 757.684375 224.2625 757.6 224.15 757.6953125 224.2734375 757.75 224.35
M 751.2 92.95
Q 750.7 94.5 750.15 96.1 749.45 98.2 748.5 100.2 747.55 102.25 746.55 104.25 745.55 106.25 744.45 108.2 743.35 110.15 742.1 112.05 741.75 112.45 741.4 112.8 741.05 113.15 740.7 113.5 740.35 113.9 739.95 114.25 739.6 114.6 739.2 114.95 738.85 115.3 738.45 115.6 734.15 118.4 729.6 120.85 725.75 122.95 722.15 125.55 718.6 128.1 715.4 131 712.1 134 709.6 137.7 707.05 141.5 705.8 145.95 705.7 146.5 705.65 147.1 705.55 147.65 705.5 148.2 705.4 148.75 705.35 149.35 705.25 149.9 705.2 150.45 705.1 151 705.05 151.6 704.95 152.15 704.9 152.7 704.8 153.25 704.75 153.85 704.7 155.35 704.9 156.85 704.9033203125 156.8833984375 704.9 156.9 702.1634765625 160.267578125 699.8 163.8 699.8 160.5869140625 699.8 157.35 699.8 142.25 699.8 127.15 699.8 112.05 699.8 97 699.8 92.136328125 699.8 87.25 706.7115234375 88.0025390625 713.65 88.7 722.75 89.65 731.75 90.65 741.5 91.7 751.2 92.95
M 672.6 324.8
Q 669.2 310.65 660.25 299.1 651.35 287.6 639.85 278.65 628.3 269.65 615.35 262.7 602.85 255.95 589.65 250.65 576.2 245.25 562.4 240.75 561.8 239.05 561 237.5 558.55 232.8 554.7 229.2 551.15 225.85 546.75 223.85 544.3662109375 222.7375 541.85 222.1 547.516015625 215.76640625 552.7 209 562.75 195.85 569.6 180.8 576.4 165.7 580.2 149.6 583.7 134.85 583.4 119.75 583.1 105.1 579.25 90.95 575.55 77.3 568.15 65.3 560.5 52.75 549.7 42.8 539.5 33.4 527.7 26.05 515.7 18.55 502.4 13.9 487.85 8.75 472.4 9.7 457.15 10.65 443.15 16.8 428.75 23.2 415.5 31.6 402.9 39.6 390.95 48.45 378.8 57.45 367 67 354.95 76.75 344.4 88.05 334.3 98.9 325.6 110.9 316.8 123.05 311 136.95 305.35 150.55 302.15 164.95 297.9 183.85 293.3 202.65 292.745703125 204.909375 292.1 207.15 288.5962890625 202.91796875 284.85 198.85 274.8 187.95 261.65 181 248.45 174 234 170.25 218.95 166.35 203.4 165.05 197.6 164.55 191.85 164.9 178.5 165.7 170.45 176.35 162.25 187.2 164.95 200.5 164.6 200.65 164.25 200.75 150.05 205.8 137.25 213.55 124.6 221.25 115.3 232.6 105.6 244.45 102.15 259.45 98.7 274.35 100.2 289.55 101.65 304.3 104.25 318.85 106.8 333.3 112.4 346.8 118.1 360.4 126.95 372.25 136 384.4 146.7 395.1 157.35 405.7 169.7 414.25 181.75 422.6 195.35 428.1 209.3 433.7 223.85 437.05 231.05 438.5 238.3 439.6 254 441.95 269.9 442.05 284.8 442.15 299.45 439.75 313.05 437.55 323.2 428.25 334.15 418.25 338.6 404 343.85 387.3 345.9 369.9 347.8 353.65 347.35 337.35 346.85 320.9 343.75 304.7 340.75 288.85 334.5 273.95 331.321875 266.4548828125 327.5 259.3 330.069140625 258.2880859375 332.6 256.75 342.5 250.75 345.15 239.65 348.6 224.9 352.25 210.2 355.95 195.25 359.05 180.15 362.1 165.1 369.75 151.9 373.650390625 145.11328125 378.35 138.95 380.4892578125 141.8271484375 383.4 144.25 386.65 146.95 390.6 148.2 401.230078125 151.6642578125 412.5 152.25 418.5177734375 153.1833984375 424.5 154.25 430.95 155.4 437.3 157.05 443.7 158.65 450.05 160.5 456.45 162.35 462.7 164.75 469 167.15 474.65 170.75 489.55 178.75 504.3 170.45 507.9712890625 168.363671875 510.75 165.6 503.1873046875 178.0658203125 492.95 188.45 482.45 199.1 470.1 207.6 457.9 216.05 444.7 222.85 441 224.75 437 225.7 425.85 228.4 418.15 236.7 407.609765625 248.0546875 410.6 262.95 401.8837890625 273.8205078125 396.2 286.55 390.05 300.4 386 315 381.95 329.6 381.05 344.7 380.15 359.7 385.5 373.65 390.95 387.8 401.25 398.95 411.5 410.1 424.4 418.05 437.15 425.95 451.4 430.7 465.5 435.45 480.15 438 494.7 440.55 509.35 441.95 524.2 443.3 539.15 443.65 550.35 443.75 561.5 442.35 577.3 440.35 592.35 435.35 606.75 430.6 619.8 423 632.15 415.8 642.35 405.8 652.5 395.85 660.15 383.85 668.3 371 672.25 356.25 676.4 340.6 672.6 324.8
M 462.55 294.8
Q 463.55 294.15 464.6 293.55 465.6 292.95 466.65 292.4 467.7 291.8 468.75 291.25 469.8 290.7 470.85 290.15 472.5 289.6 474.2 289.05 476.4 288.4 478.65 287.8 480.9 287.25 483.2 286.75 485.45 286.25 487.75 285.85 489.85 285.45 491.95 285.1 493.85 284.75 495.8 284.6 509.6 287.55 523.25 291.15 536.65 294.7 549.85 298.9 562.5 302.95 574.6 308.45 585.4 313.3 595.45 319.6 605.25 325.75 612.95 334.4 613.25 334.9 613.55 335.35 613.85 335.8 614.15 336.3 614.4 336.75 614.7 337.25 614.95 337.75 615.2 338.25 615.3 338.35 615.3 338.5 615.35 338.9 615.35 339.3 615.35 339.7 615.35 340.1 615.2 340.7 615.05 341.25 614.9 341.8 614.75 342.35 614.55 342.95 614.4 343.5 614.2 344.05 614.05 344.6 613.85 345.15 613.65 345.7 613.45 346.25 613.3 346.8 613.05 347.3 612.8 347.8 611.8 349.75 610.65 351.6 609.55 353.5 608.35 355.35 607.2 357.2 605.7 358.8 604.25 360.45 602.7 362 601.2 363.55 599.6 365.05 598 366.55 596.35 368 595.45 368.6 594.5 369.2 588 373.5 580.85 376.5 573.9 379.45 566.55 381.35 559.15 383.25 551.5 383.95 544.05 384.6 536.6 384.4 529.1 384.2 521.65 383.75 520.45 383.65 519.25 383.6 510.25 383 501.3 381.65 493.2 380.4 485.2 378.65 477.15 376.9 469.25 374.4 461.95 372.1 455.45 368 448.9 363.9 443.8 358.1 443.5 357.65 443.2 357.15 442.9 356.7 442.6 356.2 442.3 355.7 442 355.25 441.7 354.75 441.45 354.25 441.15 353.75 440.9 353.25 440.75 352.7 440.55 352.1 440.4 351.5 440.25 350.95 440.1 350.35 439.95 349.75 439.9 349.2 439.9 348.7 439.9 348.15 439.9 347.6 439.9 347.1 439.9 346.55 439.95 346 439.95 345.5 439.95 344.95 440 344.4 440.05 343.9 440.05 343.35 440.6 340.35 441.25 337.45 442.2 333.3 443.4 329.3 444.6 325.25 445.9 321.25 447.2 317.35 448.9 313.6 450.55 310.1 452.4 306.65 454.25 303.2 456.4 299.95 456.8 299.55 457.2 299.1 457.55 298.7 457.95 298.3 458.35 297.9 458.75 297.5 459.15 297.1 459.55 296.75 460.05 296.4 460.55 296.1 461.55 295.45 462.55 294.8
M 161.15 269.6
Q 161.55 269.2 161.9 268.8 162.3 268.4 162.7 268 163.1 267.65 163.5 267.25 163.9 266.9 164.3 266.5 164.7 266.15 165.15 265.8 166.5 264.85 167.9 263.95 174.6 259.6 182.2 257.25 190.45 254.65 199 253.15 207.85 251.55 216.9 251.45 225.45 251.35 233.95 252.1 242.75 252.85 251.1 250.35 252.15 251.8 253.2 253.25 261.4 264.65 269.05 276.45 276.55 288 281.15 300.95 285.7 313.75 287.35 327.2 289.05 341.1 288 355 286.9 368.9 283.65 382.4 283.05 382.45 282.4 382.5 275.65 382.95 268.85 382.8 262.05 382.7 255.25 382.25 248.5 381.75 241.85 380.45 235.35 379.2 229.05 377.2 222.9 375.25 216.8 373.15 215.85 372.65 214.9 372.2 209.05 369.15 203.45 365.65 197.65 362 192.55 357.5 187.35 352.85 182.7 347.6 178 342.35 174 336.55 170 330.75 166.85 324.5 165.2 320 163.95 315.35 162.75 310.75 161.8 306.05 160.85 301.3 160.25 296.5 159.65 291.6 159.2 286.7 158.8 281.8 158.95 276.9 159.05 276.35 159.2 275.8 159.3 275.3 159.45 274.75 159.6 274.2 159.7 273.65 159.85 273.1 160 272.55 160.15 272.05 160.35 271.5 160.5 270.95 160.65 270.45 160.9 270 161.15 269.6
M 520.05 100
Q 520.19921875 100.3123046875 520.35 100.6 520.55 101.15 520.75 101.75 521.3 103.45 521.85 105.15 522.35 106.9 522.8 108.65 523.25 110.4 523.6 112.15 524 113.9 524.3 115.7 524.4 116.9 524.45 118.15 524.6 120 524.6 121.85 524.55 123.65 524.5 125.5 524.45 127.35 524.3 129.2 523.55 133.25 522.55 137.25 520.9853515625 143.5939453125 518.65 149.6 520.155859375 140.0044921875 515.5 131.2 513.1 126.7 509.15 123.5 498.6 115.05 485.85 110.15 467.3 103.05 447.85 98.9 437.443359375 96.686328125 426.95 95 432.61875 90.80078125 438.4 86.75 455.2 75 474.55 68.7 475.05 68.7 475.6 68.7 476.15 68.7 476.7 68.7 476.9359375 68.7 477.15 68.7 476.6802734375 71.3111328125 476.6 74.15 476.7 83.75 482.45 91.5 489.45 100.95 501.1 102.95 511.6578125 104.73203125 520.05 100 Z"/>
</g>
</g>
</g>
</g>
</svg>
