
<svg xmlns="http://www.w3.org/2000/svg" version="1.1" xmlns:xlink="http://www.w3.org/1999/xlink" preserveAspectRatio="none" x="0px" y="0px" width="126px" height="150px" viewBox="0 0 126 150">
<defs>
<g id="Layer1_0_FILL">
<path fill="#D2D2D2" stroke="none" d="
M 97.75 46.9
Q 96.95 43 94.7 44.2 81.25 51.2 69.2 54.9 58.8 58.1 59.8 56.65 62.8 53.4 64.9 51.05 68.95 46.55 67.15 47.65 49.3 58.2 28.45 61.5 27.75 70.1 27.7 73.4 27.7 76.3 28.15 81.4 28.45 84.85 29.75 88.3 31.15 92.2 31.3 93.15 31.95 96.95 32.15 104.2 32.35 111.5 32.8 114.35 33.2 120.85 35.95 125.9 37.3 128.4 38.6 129.6 40.95 131.85 41.5 132.45 42 133 45.05 136.6 50.7 143.25 54.45 146.05 58.45 149 62.05 149 65.3 149 70.4 145.15 71.15 144.55 76.8 139.6 78.3 138.25 80.9 135.45 84.2 131.95 86.2 129.8 86.95 129.15 87.95 126.85 89.85 122.3 90.9 114.3 91.5 107.95 91.9 104.35 92.6 97.8 94.4 92.75 96.3 87.7 96.9 84
L 97.1 81.3
Q 97.75 75.95 98 63.35
L 98.1 51.85
Q 97.9 47.85 97.75 46.9 Z"/>
</g>

<g id="Layer1_1_FILL">
<path fill="#000000" stroke="none" d="
M 3.5 91.85
Q 1.6 93.95 0.55 94.75 5.65 94.8 9.35 93 11.2 92.1 12 91.2 10.9 94.5 5.35 98.8 2.65 100.85 0.7 102.35 5.15 102.95 9.45 101.85 13.75 100.8 17.35 98.15 18.8 106.8 21.25 113.35 24.65 122.6 29.4 126.1 29.85 126.45 29.75 124.8 29.55 122.9 29.55 122.5 29.85 122.7 32.05 125.25 34.85 128.05 38.55 129.6 37.3 128.4 35.95 125.9 33.2 120.85 32.8 114.35 32.35 111.55 32.15 104.2 31.95 96.95 31.3 93.15 30.75 90.7 29.85 88.7
L 29.85 92.35
Q 29.85 94.2 28.3 96.1 26.6 98.15 24.5 98.15 22.053515625 98.0998046875 23.35 92.95 24.6892578125 87.800390625 18.25 92.35
L 18.25 92 16.75 92
Q 15.25 92 14.15 91 13.05 89.95 12.85 88.45
L 12.85 81.4 9.8 81.4
Q 7.5 87.55 3.5 91.85 Z"/>
</g>

<g id="Layer1_2_FILL">
<path fill="#000000" stroke="none" d="
M 96.8 92.35
Q 102.6798828125 85.1099609375 96.8 84.35 96.05 88.2 94.4 92.85 92.6 97.9 91.85 104.45 91.45 108 90.85 114.35 89.8 122.35 87.9 126.9 86.9 129.2 86.15 129.85 89.7 128.25 92.45 124.85 94.35 121.95 94.4 122.25 94.6 122.9 94.25 124.7 93.8 126.85 93.8 127.8 98.85 124.35 101.35 118.8 101.6 119.35 101.9 120.85 102.2 122.25 102.55 122.9 104.8 119.3 107.15 114.25 111.85 104.2 112.55 97.1 112.95 92.85 112.95 90.45 111.75 92 109.75 92
L 108.4 92 108.4 92.35
Q 102.3466796875 88.565234375 103.5 93.3 104.6509765625 98.0947265625 102.2 98.15 100.1015625 98.14609375 101.1 93.4 102.1453125 88.71171875 96.8 92.35 Z"/>
</g>

<g id="Layer1_3_FILL">
<path fill="#000000" stroke="none" d="
M 107.95 39.7
Q 103.05 25 92 17.05 85.1 12 76.15 9.7 69.9 8.05 63.25 7.9 56.65 8.05 50.4 9.7 41.5 12 34.6 17.05 23.5 25.1 18.6 39.7 17.7 43.3 17.3 46.6
L 16.15 65 18.25 65 18.25 64.7
Q 27.4306640625 75.1453125 25.15 68.55 22.9201171875 61.95546875 23.15 59.25
L 23.75 59.25
Q 26.7 59.25 28.45 61.55 49.2 58.3 67.15 47.65 69 46.55 64.9 51.1 62.8 53.45 59.8 56.65 58.7 58.05 69.2 54.85 81.35 51.2 94.7 44.2 98.1 42.4 98.1 51.85
L 98.05 51.85 98 61.75
Q 99.7 59.3 102.6 59.2 105.3974609375 59.2048828125 103.35 65.35 101.3076171875 71.4849609375 108.4 64.7
L 108.4 65 110.4 65
Q 112.373046875 54.8900390625 109.25 46.6 108.85 43.3 107.95 39.7 Z"/>
</g>

<g id="Layer0_0_FILL">
<path fill="#D2D2D2" stroke="none" d="
M 28.55 60.85
Q 28.5248046875 61.0947265625 28.5 61.35
L 28.5 63.3
Q 53.322265625 62.9166015625 75.55 63.05 65.4158203125 58.832421875 55.35 51.85 56.05 59.7 56.05 62.4 48.95 60 42.5 55.45 31.6 47.8 31.35 48.6 30.4 48.05 28.55 60.85
M 94.35 58.8
L 91.2 56.7
Q 91.2 58.1126953125 93.05 63.25 93.7021484375 63.28828125 94.35 63.3
L 94.35 58.8 Z"/>

<path fill="#FFB780" stroke="none" d="
M 24.3 58.85
Q 21.9 58.85 20.3 60.5 18.7 62.05 18.6 64.3
L 18.6 64.35
Q 18.6 64.4 18.6 64.5
L 18.6 92.5 18.6 92.6
Q 18.6 92.7 18.6 92.75 18.65 95 20.3 96.6 21.9 98.3 24.3 98.3 26.65 98.3 28.25 96.6 29.85 95.05 29.9 92.9 29.9 92.75 29.9 92.6
L 29.9 88.85
Q 27.7 82.4 27.95 73.35 28.18203125 64.905078125 28.5 61.35 28.5248046875 61.0947265625 28.55 60.85 28.55 60.7794921875 28.5 60.7 28.4794921875 60.6794921875 28.45 60.65 28.35 60.6 28.25 60.5 26.65 58.85 24.3 58.85
M 8.2 29.3
Q 7.3 29.3 6.55 29.1
L 6.5 56.45
Q 6.6 54 9.25 52.8
L 10.1 52.4 10.1 51.65 10.05 29.05
Q 9.15 29.3 8.2 29.3
M 106.55 60.5
Q 104.9 58.85 102.55 58.85 100.2 58.85 98.55 60.5 98.4 60.65 98.2 60.85 98.1 60.9 98.05 61 97.9 61.1 97.85 61.2 97.75 61.25 97.7 61.3 97.65 61.3 97.6 61.35 97.6 66.95 97.4 70.9 97.25 74.85 96.9 83.05
L 96.9 92.6
Q 96.9 92.75 96.9 92.9 97 95.05 98.55 96.6 100.2 98.3 102.55 98.3 104.9 98.3 106.55 96.6 108.2 95 108.2 92.75 108.2 92.7 108.2 92.6
L 108.2 92.5 108.2 64.5
Q 108.2 64.4 108.2 64.35
L 108.2 64.3
Q 108.15 62.05 106.55 60.5
M 120.25 29.1
Q 119.5 29.3 118.6 29.3 117.65 29.3 116.75 29.05
L 116.7 51.65 116.7 52.4 117.55 52.8
Q 120.2 54 120.3 56.45
L 120.25 29.1 Z"/>

<path fill="#000000" stroke="none" d="
M 98.05 61
Q 98.1 60.9 98.2 60.85 108.05 28.2 88.45 23.85
L 38.2 23.85
Q 20.65 31.95 28.45 60.3 27.946875 53.5666015625 28.5 49.9 28.6736328125 48.7490234375 28.95 47.9 29.63515625 45.8091796875 30.95 45.55 33.2947265625 44.9435546875 38.2 47.9 39.38828125 48.6 40.7 49.5 47.55 54.2 51.95 56.6 51.1 49 53.1 48 53.2146484375 47.942578125 53.35 47.9
L 55.1 47.9
Q 56.888671875 48.3513671875 59.6 50.4 73.819140625 59.52578125 85.55 63.15 87.6404296875 63.8240234375 89.65 64.3 89.3689453125 63.7439453125 89.1 63.2 85.331640625 55.1609375 88.85 53.05 91.228125 51.6037109375 94.35 55.3 96.08515625 57.35625 98.05 61 Z"/>

<path fill="#E24B00" stroke="none" d="
M 91.2 56.7
L 94.35 58.8 97.85 61.2
Q 97.9 61.1 98.05 61 96.08515625 57.35625 94.35 55.3 91.228125 51.6037109375 88.85 53.05 85.331640625 55.1609375 89.1 63.2 89.3689453125 63.7439453125 89.65 64.3 87.6404296875 63.8240234375 85.55 63.15 73.819140625 59.52578125 59.6 50.4 56.888671875 48.3513671875 55.1 47.9
L 53.35 47.9
Q 53.2146484375 47.942578125 53.1 48 51.1 49 51.95 56.6 47.55 54.2 40.7 49.5 39.38828125 48.6 38.2 47.9 33.2947265625 44.9435546875 30.95 45.55 29.63515625 45.8091796875 28.95 47.9 28.6736328125 48.7490234375 28.5 49.9 27.946875 53.5666015625 28.45 60.3 28.45 60.45 28.45 60.65 28.4794921875 60.6794921875 28.5 60.7 28.55 60.7794921875 28.55 60.85 30.4 48.05 31.35 48.6 31.6 47.8 42.5 55.45 48.95 60 56.05 62.4 56.05 59.7 55.35 51.85 65.4158203125 58.832421875 75.55 63.05 85.2931640625 67.15546875 95.1 68.7 93.8876953125 65.6072265625 93.05 63.25 91.2 58.1126953125 91.2 56.7
M 15.1 64.35
Q 12.6 64.35 12.6 66.85
L 12.6 81.5 12.6 90
Q 12.6 92.5 15.1 92.5
L 18.6 92.5 18.6 64.5
Q 18.6 64.4 18.6 64.35
L 16.4 64.35 15.1 64.35
M 108.2 64.35
Q 108.2 64.4 108.2 64.5
L 108.2 92.5 111.7 92.5
Q 114.25 92.5 114.25 90
L 114.25 81.5 114.25 66.85
Q 114.25 64.35 111.7 64.35
L 110.4 64.35 108.2 64.35
M 116.7 52.4
L 116.7 51.65
Q 111 2.2 63.25 1.15 63.1 1.15 62.95 1.15 62.9 1.15 62.8 1.15 15.8 2.35 10.1 51.65
L 10.1 52.4 18.1 48.4
Q 23.7 9.7 62.8 8.95 62.85 8.95 62.9 8.95
L 63.25 8.95
Q 63.3 8.95 63.35 8.95 103.6 9.95 108.75 48.4
L 116.7 52.4 Z"/>

<path fill="#FF6F00" stroke="none" d="
M 12.6 66.85
Q 12.6 64.35 15.1 64.35
L 16.4 64.35
Q 16.75 56.2 18.1 48.4
L 10.1 52.4 9.25 52.8
Q 6.6 54 6.5 56.45
L 6.5 78.95
Q 6.5 81.5 9.05 81.5
L 12.6 81.5 12.6 66.85
M 13.6 23.95
Q 13.6 21.7 12 20.1 10.45 18.5 8.2 18.5 5.95 18.5 4.35 20.1 2.8 21.7 2.8 23.95 2.8 26.15 4.35 27.7 5.35 28.7 6.55 29.1 7.3 29.3 8.2 29.3 9.15 29.3 10.05 29.05 11.1 28.6 12 27.7 13.6 26.15 13.6 23.95
M 117.55 52.8
L 116.7 52.4 108.75 48.4
Q 110.05 56.2 110.4 64.35
L 111.7 64.35
Q 114.25 64.35 114.25 66.85
L 114.25 81.5 117.75 81.5
Q 120.3 81.5 120.3 78.95
L 120.3 56.45
Q 120.2 54 117.55 52.8
M 122.45 27.7
Q 124 26.15 124 23.95 124 21.7 122.45 20.1 120.85 18.5 118.6 18.5 116.4 18.5 114.85 20.1 113.25 21.7 113.25 23.95 113.25 26.15 114.85 27.7 115.7 28.6 116.75 29.05 117.65 29.3 118.6 29.3 119.5 29.3 120.25 29.1 121.5 28.7 122.45 27.7 Z"/>
</g>
</defs>

<g transform="matrix( 1, 0, 0, 1, 0,0) ">
<use xlink:href="#Layer1_0_FILL"/>
</g>

<g transform="matrix( 1, 0, 0, 1, 0,0) ">
<use xlink:href="#Layer1_1_FILL"/>
</g>

<g transform="matrix( 1, 0, 0, 1, 0,0) ">
<use xlink:href="#Layer1_2_FILL"/>
</g>

<g transform="matrix( 1, 0, 0, 1, 0,0) ">
<use xlink:href="#Layer1_3_FILL"/>
</g>

<g transform="matrix( 1, 0, 0, 1, 0,0) ">
<use xlink:href="#Layer0_0_FILL"/>
</g>
</svg>
